<svg x="21" y="21"><svg class="hk2kK27Wua KvzC0eAdzx kimZ8er9uo" x="0" y="0" data-key="Backquote"><rect class="nmfONrJeDT" x="0" y="0" width="40" height="40"></rect><text class="afO9z9UoTX tsEktbSxgC" x="10" y="15">~</text><text class="afO9z9UoTX tsEktbSxgC" x="10" y="30">`</text></svg><svg class="hk2kK27Wua KvzC0eAdzx kimZ8er9uo" x="42" y="0" data-key="Digit1"><rect class="nmfONrJeDT" x="0" y="0" width="40" height="40"></rect><text class="afO9z9UoTX tsEktbSxgC" x="10" y="15">!</text><text class="afO9z9UoTX tsEktbSxgC" x="10" y="30">1</text></svg><svg class="hk2kK27Wua KvzC0eAdzx lTli91aVpJ" x="84" y="0" data-key="Digit2"><rect class="nmfONrJeDT" x="0" y="0" width="40" height="40"></rect><text class="afO9z9UoTX tsEktbSxgC" x="10" y="15">@</text><text class="afO9z9UoTX tsEktbSxgC" x="10" y="30">2</text></svg><svg class="hk2kK27Wua KvzC0eAdzx MyByp0jHOE" x="126" y="0" data-key="Digit3"><rect class="nmfONrJeDT" x="0" y="0" width="40" height="40"></rect><text class="afO9z9UoTX tsEktbSxgC" x="10" y="15">#</text><text class="afO9z9UoTX tsEktbSxgC" x="10" y="30">3</text></svg><svg class="hk2kK27Wua KvzC0eAdzx SX4_4Lpj1F" x="168" y="0" data-key="Digit4"><rect class="nmfONrJeDT" x="0" y="0" width="40" height="40"></rect><text class="afO9z9UoTX tsEktbSxgC" x="10" y="15">$</text><text class="afO9z9UoTX tsEktbSxgC" x="10" y="30">4</text></svg><svg class="hk2kK27Wua KvzC0eAdzx SX4_4Lpj1F" x="210" y="0" data-key="Digit5"><rect class="nmfONrJeDT" x="0" y="0" width="40" height="40"></rect><text class="afO9z9UoTX tsEktbSxgC" x="10" y="15">%</text><text class="afO9z9UoTX tsEktbSxgC" x="10" y="30">5</text></svg><svg class="hk2kK27Wua KvzC0eAdzx Iba6X9_Jhx" x="252" y="0" data-key="Digit6"><rect class="nmfONrJeDT" x="0" y="0" width="40" height="40"></rect><text class="afO9z9UoTX tsEktbSxgC" x="10" y="15">^</text><text class="afO9z9UoTX tsEktbSxgC" x="10" y="30">6</text></svg><svg class="hk2kK27Wua KvzC0eAdzx Iba6X9_Jhx" x="294" y="0" data-key="Digit7"><rect class="nmfONrJeDT" x="0" y="0" width="40" height="40"></rect><text class="afO9z9UoTX tsEktbSxgC" x="10" y="15">&amp;</text><text class="afO9z9UoTX tsEktbSxgC" x="10" y="30">7</text></svg><svg class="hk2kK27Wua KvzC0eAdzx z_iSXjYG1Q" x="336" y="0" data-key="Digit8"><rect class="nmfONrJeDT" x="0" y="0" width="40" height="40"></rect><text class="afO9z9UoTX tsEktbSxgC" x="10" y="15">*</text><text class="afO9z9UoTX tsEktbSxgC" x="10" y="30">8</text></svg><svg class="hk2kK27Wua KvzC0eAdzx hobMjUMzZu" x="378" y="0" data-key="Digit9"><rect class="nmfONrJeDT" x="0" y="0" width="40" height="40"></rect><text class="afO9z9UoTX tsEktbSxgC" x="10" y="15">(</text><text class="afO9z9UoTX tsEktbSxgC" x="10" y="30">9</text></svg><svg class="hk2kK27Wua KvzC0eAdzx U7gV3YFgvL" x="420" y="0" data-key="Digit0"><rect class="nmfONrJeDT" x="0" y="0" width="40" height="40"></rect><text class="afO9z9UoTX tsEktbSxgC" x="10" y="15">)</text><text class="afO9z9UoTX tsEktbSxgC" x="10" y="30">0</text></svg><svg class="hk2kK27Wua KvzC0eAdzx U7gV3YFgvL" x="462" y="0" data-key="Minus"><rect class="nmfONrJeDT" x="0" y="0" width="40" height="40"></rect><text class="afO9z9UoTX tsEktbSxgC" x="10" y="15">_</text><text class="afO9z9UoTX tsEktbSxgC" x="10" y="30">-</text></svg><svg class="hk2kK27Wua KvzC0eAdzx U7gV3YFgvL" x="504" y="0" data-key="Equal"><rect class="nmfONrJeDT" x="0" y="0" width="40" height="40"></rect><text class="afO9z9UoTX tsEktbSxgC" x="10" y="15">+</text><text class="afO9z9UoTX tsEktbSxgC" x="10" y="30">=</text></svg><svg class="hk2kK27Wua ZRfcZxhrYJ" x="546" y="0" data-key="Backspace"><rect class="nmfONrJeDT" x="0" y="0" width="83" height="40"></rect><text class="afO9z9UoTX" x="15" y="25">Backspace</text></svg><svg class="hk2kK27Wua KvzC0eAdzx" x="648" y="0" data-key="Insert"><rect class="nmfONrJeDT" x="0" y="0" width="40" height="40"></rect><text class="afO9z9UoTX" x="5" y="16">Insert</text></svg><svg class="hk2kK27Wua KvzC0eAdzx" x="690" y="0" data-key="Home"><rect class="nmfONrJeDT" x="0" y="0" width="40" height="40"></rect><text class="afO9z9UoTX" x="5" y="16">Home</text></svg><svg class="hk2kK27Wua KvzC0eAdzx" x="732" y="0" data-key="PageUp"><rect class="nmfONrJeDT" x="0" y="0" width="40" height="40"></rect><text class="afO9z9UoTX" x="5" y="16">Page</text><text class="afO9z9UoTX" x="5" y="28">Up</text></svg><svg class="hk2kK27Wua KvzC0eAdzx" x="792" y="0" data-key="NumLock"><rect class="nmfONrJeDT" x="0" y="0" width="40" height="40"></rect><text class="afO9z9UoTX" x="5" y="16">Num</text><text class="afO9z9UoTX" x="5" y="28">Lock</text></svg><svg class="hk2kK27Wua KvzC0eAdzx" x="834" y="0" data-key="NumpadDivide"><rect class="nmfONrJeDT" x="0" y="0" width="40" height="40"></rect><text class="afO9z9UoTX XJ2rDswuKT" x="15" y="25">⁄</text></svg><svg class="hk2kK27Wua KvzC0eAdzx" x="876" y="0" data-key="NumpadMultiply"><rect class="nmfONrJeDT" x="0" y="0" width="40" height="40"></rect><text class="afO9z9UoTX XJ2rDswuKT" x="15" y="25">×</text></svg><svg class="hk2kK27Wua KvzC0eAdzx" x="918" y="0" data-key="NumpadSubtract"><rect class="nmfONrJeDT" x="0" y="0" width="40" height="40"></rect><text class="afO9z9UoTX XJ2rDswuKT" x="15" y="25">−</text></svg><svg class="hk2kK27Wua ZRfcZxhrYJ" x="0" y="42" data-key="Tab"><rect class="nmfONrJeDT" x="0" y="0" width="63" height="40"></rect><text class="afO9z9UoTX" x="15" y="25">Tab</text></svg><svg class="hk2kK27Wua KvzC0eAdzx kimZ8er9uo" x="65" y="42" data-key="KeyQ"><rect class="nmfONrJeDT" x="0" y="0" width="40" height="40"></rect><text class="afO9z9UoTX XJ2rDswuKT" x="15" y="25">Q</text></svg><svg class="hk2kK27Wua KvzC0eAdzx lTli91aVpJ" x="107" y="42" data-key="KeyW"><rect class="nmfONrJeDT" x="0" y="0" width="40" height="40"></rect><text class="afO9z9UoTX XJ2rDswuKT" x="15" y="25">W</text></svg><svg class="hk2kK27Wua KvzC0eAdzx MyByp0jHOE" x="149" y="42" data-key="KeyE"><rect class="nmfONrJeDT" x="0" y="0" width="40" height="40"></rect><text class="afO9z9UoTX XJ2rDswuKT" x="15" y="25">F</text></svg><svg class="hk2kK27Wua KvzC0eAdzx SX4_4Lpj1F" x="191" y="42" data-key="KeyR"><rect class="nmfONrJeDT" x="0" y="0" width="40" height="40"></rect><text class="afO9z9UoTX XJ2rDswuKT" x="15" y="25">P</text></svg><svg class="hk2kK27Wua KvzC0eAdzx SX4_4Lpj1F" x="233" y="42" data-key="KeyT"><rect class="nmfONrJeDT" x="0" y="0" width="40" height="40"></rect><text class="afO9z9UoTX XJ2rDswuKT" x="15" y="25">G</text></svg><svg class="hk2kK27Wua KvzC0eAdzx Iba6X9_Jhx" x="275" y="42" data-key="KeyY"><rect class="nmfONrJeDT" x="0" y="0" width="40" height="40"></rect><text class="afO9z9UoTX XJ2rDswuKT" x="15" y="25">J</text></svg><svg class="hk2kK27Wua KvzC0eAdzx Iba6X9_Jhx" x="317" y="42" data-key="KeyU"><rect class="nmfONrJeDT" x="0" y="0" width="40" height="40"></rect><text class="afO9z9UoTX XJ2rDswuKT" x="15" y="25">L</text></svg><svg class="hk2kK27Wua KvzC0eAdzx z_iSXjYG1Q" x="359" y="42" data-key="KeyI"><rect class="nmfONrJeDT" x="0" y="0" width="40" height="40"></rect><text class="afO9z9UoTX XJ2rDswuKT" x="15" y="25">U</text></svg><svg class="hk2kK27Wua KvzC0eAdzx hobMjUMzZu" x="401" y="42" data-key="KeyO"><rect class="nmfONrJeDT" x="0" y="0" width="40" height="40"></rect><text class="afO9z9UoTX XJ2rDswuKT" x="15" y="25">Y</text></svg><svg class="hk2kK27Wua KvzC0eAdzx U7gV3YFgvL" x="443" y="42" data-key="KeyP"><rect class="nmfONrJeDT" x="0" y="0" width="40" height="40"></rect><text class="afO9z9UoTX tsEktbSxgC" x="10" y="15">:</text><text class="afO9z9UoTX tsEktbSxgC" x="10" y="30">;</text></svg><svg class="hk2kK27Wua KvzC0eAdzx U7gV3YFgvL" x="485" y="42" data-key="BracketLeft"><rect class="nmfONrJeDT" x="0" y="0" width="40" height="40"></rect><text class="afO9z9UoTX tsEktbSxgC" x="10" y="15">{</text><text class="afO9z9UoTX tsEktbSxgC" x="10" y="30">[</text></svg><svg class="hk2kK27Wua KvzC0eAdzx U7gV3YFgvL" x="527" y="42" data-key="BracketRight"><rect class="nmfONrJeDT" x="0" y="0" width="40" height="40"></rect><text class="afO9z9UoTX tsEktbSxgC" x="10" y="15">}</text><text class="afO9z9UoTX tsEktbSxgC" x="10" y="30">]</text></svg><svg class="hk2kK27Wua KvzC0eAdzx U7gV3YFgvL" x="569" y="42" data-key="Backslash"><rect class="nmfONrJeDT" x="0" y="0" width="60" height="40"></rect><text class="afO9z9UoTX tsEktbSxgC" x="10" y="15">|</text><text class="afO9z9UoTX tsEktbSxgC" x="10" y="30">\</text></svg><svg class="hk2kK27Wua KvzC0eAdzx" x="648" y="42" data-key="Delete"><rect class="nmfONrJeDT" x="0" y="0" width="40" height="40"></rect><text class="afO9z9UoTX" x="5" y="16">Delete</text></svg><svg class="hk2kK27Wua KvzC0eAdzx" x="690" y="42" data-key="End"><rect class="nmfONrJeDT" x="0" y="0" width="40" height="40"></rect><text class="afO9z9UoTX" x="5" y="16">End</text></svg><svg class="hk2kK27Wua KvzC0eAdzx" x="732" y="42" data-key="PageDown"><rect class="nmfONrJeDT" x="0" y="0" width="40" height="40"></rect><text class="afO9z9UoTX" x="5" y="16">Page</text><text class="afO9z9UoTX" x="5" y="28">Down</text></svg><svg class="hk2kK27Wua KvzC0eAdzx" x="792" y="42" data-key="Numpad7"><rect class="nmfONrJeDT" x="0" y="0" width="40" height="40"></rect><text class="afO9z9UoTX XJ2rDswuKT" x="8" y="18">7</text><text class="afO9z9UoTX" x="35" y="32" text-anchor="end">Home</text></svg><svg class="hk2kK27Wua KvzC0eAdzx" x="834" y="42" data-key="Numpad8"><rect class="nmfONrJeDT" x="0" y="0" width="40" height="40"></rect><text class="afO9z9UoTX XJ2rDswuKT" x="8" y="18">8</text><text class="afO9z9UoTX" x="35" y="32" text-anchor="end">↑</text></svg><svg class="hk2kK27Wua KvzC0eAdzx" x="876" y="42" data-key="Numpad9"><rect class="nmfONrJeDT" x="0" y="0" width="40" height="40"></rect><text class="afO9z9UoTX XJ2rDswuKT" x="8" y="18">9</text><text class="afO9z9UoTX" x="35" y="32" text-anchor="end">Pg Up</text></svg><svg class="hk2kK27Wua KvzC0eAdzx" x="918" y="42" data-key="NumpadAdd"><rect class="nmfONrJeDT" x="0" y="0" width="40" height="82"></rect><text class="afO9z9UoTX XJ2rDswuKT" x="15" y="25">+</text></svg><svg class="hk2kK27Wua ZRfcZxhrYJ" x="0" y="84" data-key="CapsLock"><rect class="nmfONrJeDT" x="0" y="0" width="70" height="40"></rect><text class="afO9z9UoTX" x="15" y="25">Caps Lock</text></svg><svg class="hk2kK27Wua KvzC0eAdzx kimZ8er9uo" x="72" y="84" data-key="KeyA"><rect class="nmfONrJeDT" x="0" y="0" width="40" height="40"></rect><text class="afO9z9UoTX XJ2rDswuKT" x="15" y="25">A</text></svg><svg class="hk2kK27Wua KvzC0eAdzx lTli91aVpJ" x="114" y="84" data-key="KeyS"><rect class="nmfONrJeDT" x="0" y="0" width="40" height="40"></rect><text class="afO9z9UoTX XJ2rDswuKT" x="15" y="25">R</text></svg><svg class="hk2kK27Wua KvzC0eAdzx MyByp0jHOE" x="156" y="84" data-key="KeyD"><rect class="nmfONrJeDT" x="0" y="0" width="40" height="40"></rect><text class="afO9z9UoTX XJ2rDswuKT" x="15" y="25">S</text></svg><svg class="hk2kK27Wua KvzC0eAdzx SX4_4Lpj1F" x="198" y="84" data-key="KeyF"><rect class="nmfONrJeDT" x="0" y="0" width="40" height="40"></rect><text class="afO9z9UoTX XJ2rDswuKT" x="15" y="25">T</text></svg><svg class="hk2kK27Wua KvzC0eAdzx SX4_4Lpj1F" x="240" y="84" data-key="KeyG"><rect class="nmfONrJeDT" x="0" y="0" width="40" height="40"></rect><text class="afO9z9UoTX XJ2rDswuKT" x="15" y="25">D</text></svg><svg class="hk2kK27Wua KvzC0eAdzx Iba6X9_Jhx" x="282" y="84" data-key="KeyH"><rect class="nmfONrJeDT" x="0" y="0" width="40" height="40"></rect><text class="afO9z9UoTX XJ2rDswuKT" x="15" y="25">H</text></svg><svg class="hk2kK27Wua KvzC0eAdzx Iba6X9_Jhx" x="324" y="84" data-key="KeyJ"><rect class="nmfONrJeDT" x="0" y="0" width="40" height="40"></rect><text class="afO9z9UoTX XJ2rDswuKT" x="15" y="25">N</text></svg><svg class="hk2kK27Wua KvzC0eAdzx z_iSXjYG1Q" x="366" y="84" data-key="KeyK"><rect class="nmfONrJeDT" x="0" y="0" width="40" height="40"></rect><text class="afO9z9UoTX XJ2rDswuKT" x="15" y="25">E</text></svg><svg class="hk2kK27Wua KvzC0eAdzx hobMjUMzZu" x="408" y="84" data-key="KeyL"><rect class="nmfONrJeDT" x="0" y="0" width="40" height="40"></rect><text class="afO9z9UoTX XJ2rDswuKT" x="15" y="25">I</text></svg><svg class="hk2kK27Wua KvzC0eAdzx U7gV3YFgvL" x="450" y="84" data-key="Semicolon"><rect class="nmfONrJeDT" x="0" y="0" width="40" height="40"></rect><text class="afO9z9UoTX XJ2rDswuKT" x="15" y="25">O</text></svg><svg class="hk2kK27Wua KvzC0eAdzx U7gV3YFgvL" x="492" y="84" data-key="Quote"><rect class="nmfONrJeDT" x="0" y="0" width="40" height="40"></rect><text class="afO9z9UoTX tsEktbSxgC" x="10" y="15">"</text><text class="afO9z9UoTX tsEktbSxgC" x="10" y="30">'</text></svg><svg class="hk2kK27Wua ZRfcZxhrYJ" x="534" y="84" data-key="Enter"><rect class="nmfONrJeDT" x="0" y="0" width="95" height="40"></rect><text class="afO9z9UoTX" x="15" y="25">Enter</text></svg><svg class="hk2kK27Wua KvzC0eAdzx" x="792" y="84" data-key="Numpad4"><rect class="nmfONrJeDT" x="0" y="0" width="40" height="40"></rect><text class="afO9z9UoTX XJ2rDswuKT" x="8" y="18">4</text><text class="afO9z9UoTX" x="35" y="32" text-anchor="end">←</text></svg><svg class="hk2kK27Wua KvzC0eAdzx" x="834" y="84" data-key="Numpad5"><rect class="nmfONrJeDT" x="0" y="0" width="40" height="40"></rect><text class="afO9z9UoTX XJ2rDswuKT" x="8" y="18">5</text></svg><svg class="hk2kK27Wua KvzC0eAdzx" x="876" y="84" data-key="Numpad6"><rect class="nmfONrJeDT" x="0" y="0" width="40" height="40"></rect><text class="afO9z9UoTX XJ2rDswuKT" x="8" y="18">6</text><text class="afO9z9UoTX" x="35" y="32" text-anchor="end">→</text></svg><svg class="hk2kK27Wua ZRfcZxhrYJ" x="0" y="126" data-key="ShiftLeft"><rect class="nmfONrJeDT" x="0" y="0" width="92" height="40"></rect><text class="afO9z9UoTX" x="15" y="25">Shift</text></svg><svg class="hk2kK27Wua KvzC0eAdzx kimZ8er9uo" x="94" y="126" data-key="KeyZ"><rect class="nmfONrJeDT" x="0" y="0" width="40" height="40"></rect><text class="afO9z9UoTX XJ2rDswuKT" x="15" y="25">Z</text></svg><svg class="hk2kK27Wua KvzC0eAdzx lTli91aVpJ" x="136" y="126" data-key="KeyX"><rect class="nmfONrJeDT" x="0" y="0" width="40" height="40"></rect><text class="afO9z9UoTX XJ2rDswuKT" x="15" y="25">X</text></svg><svg class="hk2kK27Wua KvzC0eAdzx MyByp0jHOE" x="178" y="126" data-key="KeyC"><rect class="nmfONrJeDT" x="0" y="0" width="40" height="40"></rect><text class="afO9z9UoTX XJ2rDswuKT" x="15" y="25">C</text></svg><svg class="hk2kK27Wua KvzC0eAdzx SX4_4Lpj1F" x="220" y="126" data-key="KeyV"><rect class="nmfONrJeDT" x="0" y="0" width="40" height="40"></rect><text class="afO9z9UoTX XJ2rDswuKT" x="15" y="25">V</text></svg><svg class="hk2kK27Wua KvzC0eAdzx SX4_4Lpj1F" x="262" y="126" data-key="KeyB"><rect class="nmfONrJeDT" x="0" y="0" width="40" height="40"></rect><text class="afO9z9UoTX XJ2rDswuKT" x="15" y="25">B</text></svg><svg class="hk2kK27Wua KvzC0eAdzx Iba6X9_Jhx" x="304" y="126" data-key="KeyN"><rect class="nmfONrJeDT" x="0" y="0" width="40" height="40"></rect><text class="afO9z9UoTX XJ2rDswuKT" x="15" y="25">K</text></svg><svg class="hk2kK27Wua KvzC0eAdzx Iba6X9_Jhx" x="346" y="126" data-key="KeyM"><rect class="nmfONrJeDT" x="0" y="0" width="40" height="40"></rect><text class="afO9z9UoTX XJ2rDswuKT" x="15" y="25">M</text></svg><svg class="hk2kK27Wua KvzC0eAdzx z_iSXjYG1Q" x="388" y="126" data-key="Comma"><rect class="nmfONrJeDT" x="0" y="0" width="40" height="40"></rect><text class="afO9z9UoTX tsEktbSxgC" x="10" y="15">&lt;</text><text class="afO9z9UoTX tsEktbSxgC" x="10" y="30">,</text></svg><svg class="hk2kK27Wua KvzC0eAdzx hobMjUMzZu" x="430" y="126" data-key="Period"><rect class="nmfONrJeDT" x="0" y="0" width="40" height="40"></rect><text class="afO9z9UoTX tsEktbSxgC" x="10" y="15">&gt;</text><text class="afO9z9UoTX tsEktbSxgC" x="10" y="30">.</text></svg><svg class="hk2kK27Wua KvzC0eAdzx U7gV3YFgvL" x="472" y="126" data-key="Slash"><rect class="nmfONrJeDT" x="0" y="0" width="40" height="40"></rect><text class="afO9z9UoTX tsEktbSxgC" x="10" y="15">?</text><text class="afO9z9UoTX tsEktbSxgC" x="10" y="30">/</text></svg><svg class="hk2kK27Wua ZRfcZxhrYJ" x="514" y="126" data-key="ShiftRight"><rect class="nmfONrJeDT" x="0" y="0" width="115" height="40"></rect><text class="afO9z9UoTX" x="15" y="25">Shift</text></svg><svg class="hk2kK27Wua KvzC0eAdzx" x="690" y="126" data-key="ArrowUp"><rect class="nmfONrJeDT" x="0" y="0" width="40" height="40"></rect><text class="afO9z9UoTX XJ2rDswuKT" x="20" y="25" text-anchor="middle">↑</text></svg><svg class="hk2kK27Wua KvzC0eAdzx" x="792" y="126" data-key="Numpad1"><rect class="nmfONrJeDT" x="0" y="0" width="40" height="40"></rect><text class="afO9z9UoTX XJ2rDswuKT" x="8" y="18">1</text><text class="afO9z9UoTX" x="35" y="32" text-anchor="end">End</text></svg><svg class="hk2kK27Wua KvzC0eAdzx" x="834" y="126" data-key="Numpad2"><rect class="nmfONrJeDT" x="0" y="0" width="40" height="40"></rect><text class="afO9z9UoTX XJ2rDswuKT" x="8" y="18">2</text><text class="afO9z9UoTX" x="35" y="32" text-anchor="end">↓</text></svg><svg class="hk2kK27Wua KvzC0eAdzx" x="876" y="126" data-key="Numpad3"><rect class="nmfONrJeDT" x="0" y="0" width="40" height="40"></rect><text class="afO9z9UoTX XJ2rDswuKT" x="8" y="18">3</text><text class="afO9z9UoTX" x="35" y="32" text-anchor="end">Pg Dn</text></svg><svg class="hk2kK27Wua KvzC0eAdzx" x="918" y="126" data-key="NumpadEnter"><rect class="nmfONrJeDT" x="0" y="0" width="40" height="82"></rect><text class="afO9z9UoTX" x="5" y="16">Enter</text></svg><svg class="hk2kK27Wua ZRfcZxhrYJ" x="0" y="168" data-key="ControlLeft"><rect class="nmfONrJeDT" x="0" y="0" width="63" height="40"></rect><text class="afO9z9UoTX" x="15" y="25">Ctrl</text></svg><svg class="hk2kK27Wua ZRfcZxhrYJ" x="65" y="168" data-key="AltLeft"><rect class="nmfONrJeDT" x="0" y="0" width="63" height="40"></rect><text class="afO9z9UoTX" x="15" y="25">Alt</text></svg><svg class="hk2kK27Wua KvzC0eAdzx" x="130" y="168" data-key="Space"><rect class="nmfONrJeDT" x="0" y="0" width="369" height="40"></rect></svg><svg class="hk2kK27Wua ZRfcZxhrYJ" x="501" y="168" data-key="AltRight"><rect class="nmfONrJeDT" x="0" y="0" width="63" height="40"></rect><text class="afO9z9UoTX" x="15" y="25">Alt</text></svg><svg class="hk2kK27Wua ZRfcZxhrYJ" x="566" y="168" data-key="ControlRight"><rect class="nmfONrJeDT" x="0" y="0" width="63" height="40"></rect><text class="afO9z9UoTX" x="15" y="25">Ctrl</text></svg><svg class="hk2kK27Wua KvzC0eAdzx" x="648" y="168" data-key="ArrowLeft"><rect class="nmfONrJeDT" x="0" y="0" width="40" height="40"></rect><text class="afO9z9UoTX XJ2rDswuKT" x="20" y="25" text-anchor="middle">←</text></svg><svg class="hk2kK27Wua KvzC0eAdzx" x="690" y="168" data-key="ArrowDown"><rect class="nmfONrJeDT" x="0" y="0" width="40" height="40"></rect><text class="afO9z9UoTX XJ2rDswuKT" x="20" y="25" text-anchor="middle">↓</text></svg><svg class="hk2kK27Wua KvzC0eAdzx" x="732" y="168" data-key="ArrowRight"><rect class="nmfONrJeDT" x="0" y="0" width="40" height="40"></rect><text class="afO9z9UoTX XJ2rDswuKT" x="20" y="25" text-anchor="middle">→</text></svg><svg class="hk2kK27Wua KvzC0eAdzx" x="792" y="168" data-key="Numpad0"><rect class="nmfONrJeDT" x="0" y="0" width="82" height="40"></rect><text class="afO9z9UoTX XJ2rDswuKT" x="8" y="18">0</text><text class="afO9z9UoTX" x="77" y="32" text-anchor="end">Ins</text></svg><svg class="hk2kK27Wua KvzC0eAdzx" x="876" y="168" data-key="NumpadDecimal"><rect class="nmfONrJeDT" x="0" y="0" width="40" height="40"></rect><text class="afO9z9UoTX XJ2rDswuKT" x="8" y="18">.</text><text class="afO9z9UoTX" x="35" y="32" text-anchor="end">Del</text></svg></svg>